<?xml version="1.0" encoding="utf-8"?>
<!-- Generator: Adobe Illustrator 19.0.0, SVG Export Plug-In . SVG Version: 6.00 Build 0)  -->
<svg version="1.1" id="Layer_1" xmlns="http://www.w3.org/2000/svg" xmlns:xlink="http://www.w3.org/1999/xlink" x="0px" y="0px"
	 viewBox="-47 49 24 24" style="enable-background:new -47 49 24 24;" xml:space="preserve">
<style type="text/css">
	.st0{fill:#FFFFFF;}
</style>
<path class="st0" d="M-47,49v24h24V49H-47z M-39,68h-3V57h3V68z M-40.5,55.7c-1,0-1.8-0.8-1.8-1.8c0-1,0.8-1.8,1.8-1.8
	s1.8,0.8,1.8,1.8C-38.8,54.9-39.5,55.7-40.5,55.7z M-27,68h-3v-5.6c0-3.4-4-3.1-4,0V68h-3V57h3v1.8c1.4-2.6,7-2.8,7,2.5V68z"/>
</svg>
